<?xml version="1.0" encoding="utf-8"?>
<!-- Generator: Adobe Illustrator 17.1.0, SVG Export Plug-In . SVG Version: 6.00 Build 0)  -->
<!DOCTYPE svg PUBLIC "-//W3C//DTD SVG 1.1//EN" "http://www.w3.org/Graphics/SVG/1.1/DTD/svg11.dtd">
<svg version="1.1" id="Layer_1" xmlns="http://www.w3.org/2000/svg" xmlns:xlink="http://www.w3.org/1999/xlink" x="0px" y="0px"
	 viewBox="0 0 360 360" enable-background="new 0 0 360 360" xml:space="preserve">
<circle fill="#EBBB1E" stroke="#D5892D" stroke-width="15.6991" stroke-linecap="round" stroke-linejoin="round" stroke-miterlimit="10" cx="213.543" cy="177.84" r="57.197"/>
<g>
	<path fill="#F1F3F7" d="M192.842,271.914c-42.463-1.984-113.64,13.244-152.486-4.818c-35.802-16.647,11.178-53.247,42.397-39.988
		c-120.495-54.926,134.622-153.068,77.793-22.969c21.25-52.458,89.018-20.665,50.122,12.852
		c14.197-9.586,27.976-2.289,22.543,16.526c20.015-58.087,78.226-13.355,48.06,12.098c26.277-5.288,43.102,29.805,5.606,32.689
		C258.312,280.501,221.38,273.248,192.842,271.914z"/>
	<path fill="none" stroke="#AAD4E3" stroke-width="15.6991" stroke-linejoin="round" d="M192.842,271.914
		c-42.463-1.984-113.64,13.244-152.486-4.818c-35.802-16.647,11.178-53.247,42.397-39.988
		c-120.495-54.926,134.622-153.068,77.793-22.969c21.25-52.458,89.018-20.665,50.122,12.852
		c14.197-9.586,27.976-2.289,22.543,16.526c20.015-58.087,78.226-13.355,48.06,12.098c26.277-5.288,43.102,29.805,5.606,32.689
		C258.312,280.501,221.38,273.248,192.842,271.914z"/>
</g>
<line fill="none" stroke="#D5892D" stroke-width="16.5253" stroke-linecap="round" stroke-linejoin="round" stroke-miterlimit="10" x1="296.758" y1="177.84" x2="332.517" y2="177.84"/>
<line fill="none" stroke="#D5892D" stroke-width="16.5253" stroke-linecap="round" stroke-linejoin="round" stroke-miterlimit="10" x1="213.543" y1="98.087" x2="213.543" y2="62.327"/>
<line fill="none" stroke="#D5892D" stroke-width="16.5253" stroke-linecap="round" stroke-linejoin="round" stroke-miterlimit="10" x1="271.472" y1="123.372" x2="296.758" y2="98.087"/>
<line fill="none" stroke="#D5892D" stroke-width="16.5253" stroke-linecap="round" stroke-linejoin="round" stroke-miterlimit="10" x1="156.939" y1="123.372" x2="131.653" y2="98.087"/>
</svg>
